<svg xmlns="http://www.w3.org/2000/svg" width="608" height="1696" preserveAspectRatio="none" style="display: block;" version="1.1" viewBox="0 0 734 2048">
<path fill="rgb(34,34,35)" d="M401.578 17.399c23.028-3.624 81.392 6.486 103.367 15.808 8.17 3.466 19.227 24.72 23.057 33.285 2.81 6.285-1.939 14.072-5.051 20.068a69 69 0 0 1 1.026 4.943c5.452 31.553-3.875 60.02-5.845 91.137-.905 14.3 1.983 28.501-.079 42.848-1.62 11.267-21.203 89.633-25.742 95.71-5.174 6.926-16.97 7.913-24.922 9.199-.321 10.271-1.245 20.9-2.01 31.18 16.11 10.573 50.997 27.486 69.197 35.727 9.031 2.919 19.274 4.847 28.394 7.196 57.356 14.771 63.636 96.943 60.111 145.296-.777 10.659-4.609 22.666-4.429 33.203.163 9.53 2.557 20.565 3.792 30.275a1208 1208 0 0 1 5.211 51.765c1.452 18.769-.059 36.363.924 54.813.382 7.15 9.776 23.802 12.839 32.244 5.062 13.955 10.722 30.063 13.184 44.749 9.728 58.04 2.658 117.775 8.77 176.41 1.922 23.687 6.803 46.805 10.031 70.335 2.319 16.91 7.138 34.47 2.218 51.3-8.491 29.05-16.729 46.43-43.553 62.05.697 48.45-7.566 113.57-20.745 160.6-5.515 19.68-15.008 43.2-19.181 62.22-2.338 12.32 5.181 37.68 2.711 48.99-6.657 30.47-7.832 45.4-6.578 76.33.846 18.03.961 36.08.346 54.12-1.821 45.42-6.152 89.42-8.55 136.4-1.648 32.31-15.425 129.39 3.883 158.48 24.987 29.47 51.254 58.17 83.327 80.37 9.792 6.78 59.62 20.49 43.008 40.47-18.421 22.17-97.527 16.75-118.039.12-33.272-26.99-61.371-18-97.328-33.42-22.794-16.86-.666-66.87 1.836-87.51 6.355-52.45-2.987-105.56-14.864-156.24-2.508-10.7-14.316-34.05-18.884-43.68-26.869-56.62-27.292-117.76-5.749-176.16 3.973-12.59 16.976-40.41 14.855-53.41-6.473-39.68-18.883-78.38-25.904-118.5-5.985 19.6-11.287 36.34-18.19 55.59-7.989 22.42-14.028 33.08-24.454 53.57-3.049 6-13.549 41.41-15.784 48.86-2.395 18.04-1.421 43.08-.711 61.06 2.673 67.58-16.019 124.86-39.689 186.93-12.416 38.82-22.36 83.55-21.744 124.49.357 23.7 2.183 60.4 8.426 82.63a394 394 0 0 0 14.748 42.74c6.158 15.22 28.74 54.7 25.776 63.38-10.37 30.4-124.886 7.19-131.82-16.32-11.636-39.44 13.976-87.04 4.433-127.95-.363-1.55 3.945-15.27 4.147-17.87 16.659-125.31-57.099-261.37 1.448-381.58 19.155-39.33 35.019-66.67 28.594-113.14-5.799-41.95-12.822-84.65-14.825-127.01a1050 1050 0 0 1 1.104-119.34c1.679-23.11 4.505-46.47 6.231-69.53.479-6.41-3.359-21.44-3.819-29.97-1.868-34.664 2.23-63.574 12.378-96.537a2617 2617 0 0 0-71.539-56.987c-23.408-17.969-52.577-39.479-72.742-60.371-21.466-22.239-57.447-66.141-67.464-95.304 10.662-50.796 28.796-107.139 47.692-155.658 3.465-12.163 22.415-33.018 25.091-42.991 11.837-44.099 20.844-81.67 59.969-110.351 19.126-14.021 38.092-8.229 53.564-16.004 23.486-11.803 55.781-30.422 77.365-46.075 10.304-38.002 8.336-55.281 6.965-94.638a53 53 0 0 1-3.947-1.463c-27.167-11.212-37.668-48.532-26.653-74.88-1.635-9.707-4.77-20.373-6.545-30.401-12.126-68.536 29.519-117.452 97.361-123.601">
</path>
<path fill="rgb(255,255,255)" d="M347.961 245.49c6.219 6.308 5.113 27.223 9.962 35.135 9.166 14.958 26.497 24.855 38.996 36.376 20.55 18.942 38.353 15.571 64.18 13.965-.508 18.011-8.35 51.852 2.132 66.208 1.41-2.335.813-22.318.776-26.545 22.218 11.142 44.77 24.377 67.015 34.281 17.311 6.592 45.021 8.292 57.216 23.798 30.656 38.981 30.049 100.17 23.162 147.004-1.367 9.298 1.159 20.48 1.981 29.881.72 8.223 2.208 16.683 2.829 24.959 4.369 33.74 2.311 67.338 3.031 101.137 1.231.919 5.951 3.838 6.506 5.027 12.6 27.015 19.965 56.394 23.26 85.936 2.842 25.477 1.919 51.024 2.318 76.524a846 846 0 0 0 4.457 72.095c2.8 27.576 17.759 96.359 13.789 117.889-4.655 25.24-15.851 46.31-37.194 60.89l-.312-13.57c21.931-21.54 21.793-36.77 12.808-64.78 2.203-3.97 4.666-7.51 4.005-11.93l-1.326-.91c-10.653 5.13-11.726 44.69-15.356 57.21-2.489-8.96-3.829-33.47-5.058-43.91-3.825-32.46-6.24-65.92-11.413-98.192-6.205-38.704-18.954-75.872-27.648-113.863-1.215-5.311-6.102-20.921-6.508-24.811-1.39-13.307.126-28.263-1.874-42.252-1.716-12.003-5.707-26.296-6.504-38.022-.837-12.324 4.311-29.84 5.554-42.802 2.625-27.375 3.74-65.112.003-92.45a92 92 0 0 0 4.547-4.486c23.241-24.986 15.368-77.535 6.712-107.553-1.956-6.781-3.38-13.682-8.77-18.672l-1.313.393c-.227 4.622 3.819 16.57 4.875 21.912 5.163 26.108 8.642 45.898 4.795 71.606-9.075 60.656-70.456 31.401-81.218 38.942 6.169 12.444 52.809 5.314 63.523 2.038 2.011 24.881.535 59.847-1.112 85.192-.77 11.854-5.023 28.338-5.057 40.196-.038 13.065 3.377 31.046 5.627 44.453 2.052 12.226.753 34.75 2.813 44.376 3.639 16.999 8.483 35.06 12.19 52.596-33.819 20.423-91.185 27.967-130.331 26.736-5.892-.185-19.294.852-22.431-4.037.663-3.452 6.743-5.234 7.744-8.912 3.682-13.544-19.778-23.277-30.128-29.347-10.659-6.251-25.758-10.05-38.118-14.043 18.801-3.39 26.981-2.677 45.85-1.067 7.22.616 15.466-2.38 14.781-11.458-1.9-2.999-2.732-3.113-5.727-4.651-36.613-18.801-71.931-5.54-108.981 8.459 11.622-39.765 21.44-55.126 2.74-98.82-7.996-15.845-20.82-34.543-30.817-49.751-21.394-32.543-35.685-58.757-48.033-95.593 2.69-7.782 17.521-45.743 24.446-52.515 1.548-1.514 7.44 3.974 9.294 5.636 25.29 22.678 46.133 60.364 79.416 70.878 24.626 7.778 67.369 5.404 91.813-4.047 2.33-.901 2.887-1.483 3.473-3.336-5.849-2.784-73.818 12.276-95.424-.002-33.596-19.092-54.532-46.845-80.41-74.058 4.258-2.178 8.104-3.255 9.257-8.172-.978-.728-1.303-1.3-2.58-1.172-26.452 2.64-33.949 34.626-43.454 54.483-16.488 34.444-35.537 70.155-62.979 96.936-7.782-4.407-13.97-6.655-22.559-8.866 5.027 5.451 12.208 9.602 18.255 14.031 8.952 6.556 16.563 13.742 23.247 22.634 27.622 36.746 45.593 81.121 75.57 116.458 7.893 8.642 17.049 20.254 28.231 24.371 9.164 3.374 22.318-3.28 31.213-6.253 20.159-6.736 41.937-15.52 63.554-14.363 6.965.374 29.52 5.697 33.83 10.709-9.159 4.402-64.819-2.836-68.623 9.097 3.114 5.002 48.12 15.681 55.994 23.458 4.343 4.29 19.44 9.698 21.41 17.541l-1.278.913c-13.8 1.492-65.604-28.854-80.057-23.129l-.269 1.709c5.525 5.318 75.976 21.74 74.027 32.472-7.523 3.844-52.388-9.561-61.896-11.426-4.694-.92-13-5.768-17.131-2.263 1.858 6.312 43.175 14.254 50.973 26.55l-1.383 1.17c-12.702 1.522-36.979-9.892-51.683-10.285-13.563-.362-41.099 12.331-51.388 7.606-16.109-8.968-32.975-24.32-47.34-36.126-46.939-38.574-99.743-71.093-135.383-121.317-12.88-18.15-25.813-34.33-36.015-54.468.601-3.312 1.487-6.532 2.42-9.773 13.72-47.673 26.959-96.057 46.346-141.784 6.334-14.939 17.072-28.092 23.781-42.748 4.642-10.138 6.631-22.279 10.147-32.892 16.393-50.862 40.192-83.334 96.231-88.372 5.364-.483 76.662-42.3 83.631-48.777l.289-.273c7.217-20.62 10.561-45.489 9.517-67.264-.572-11.923-1.929-23.876-1.461-35.758">
</path>
<path fill="rgb(34,34,35)" d="M462.073 483.67c1.52.78 2.154.761 2.875 2.087 15.902 29.261 25.981 90.167 18.285 122.046-2.247 1.46-1.293 1.292-3.597.912-.892-1.705.385-28.741.276-33.386a342 342 0 0 0-2.365-31.109 222.5 222.5 0 0 0-7.996-36.92c-2.327-7.345-5.97-16.322-7.478-23.63m-146.575-73.282c27.328 2.3 55.256 6.367 82.397 10.247 8.656 1.237 34.315 5.359 32.337 17.428-.427-.028-19.055-8.305-20.83-9.081-14.884-6.498-84.896-10.039-93.638-16.288zm176.182 251.037c5.158 2.387 7.706 15.607 8.923 20.911 8.063 35.126 6.325 69.829 4.513 105.472l-1.198.787c-1.945-2.612-1.718-61.803-2.37-69.725-1.649-20.045-4.678-37.844-9.868-57.445m21.886-245.024c7.362-.614 10.188-.515 17.567.173-23.063 6.006-31.051 3.988-56.426 14.068-4.453 2.481-5.232 3.57-9.798 3.152l-1.175-1.546c5.248-10.498 38.525-14.725 49.832-15.847">
</path>
<path fill="rgb(255,255,255)" d="M337.898 1007.37c52.506-6.16 127.476 30.15 142.884 84.43.95 3.35-2.528 24.24-3.072 29.19-9.524 86.74-34.269 171.1-63.495 253.04-6.651 18.64-18.79 35.76-24.175 54.98-3.316 11.83-7.566 23.27-11.845 34.75-3.399 9.13-10.473 18.37-13.056 27.25l1.057.55c5.652-4.01 8.362-8.77 12.428-14.42-.819 25.68.365 51.39-.902 77.16a378 378 0 0 1-13.455 81.56c-7.392 27.41-18.165 52.46-26.532 79.63-11.98 38.9-18.767 82.85-19.463 123.54-.237 13.85 2.108 29.57 3.389 43.41.665 7.18-.789 16.52.749 23.18 6.304 27.29 15.632 55.91 28.855 80.53 16.605 31.73 31.148 48.77-22.401 45.95-22.836-1.21-64.535-8.78-80.068-25.84-6.957-26.64 5.98-73.49 9.166-101.49.813-7.15-3.529-14.3-3.181-21.62.858-18.06 6.951-35.35 7.046-53.84.119-23.39-2.939-46.96-5.621-70.16-4.559-39.45-10.212-78.71-14.062-118.24-2.636-27.06-4.692-53.82-2.029-80.99 2.624-26.77 10.824-52.79 21.697-77.31 11.645-26.26 25.872-49.73 28.463-79.04 2.987-33.78-5.345-67.97-9.783-101.29-3.944-29.61-5.384-59.41-6.059-89.25-.638-28.22.769-165.82 14.639-183.69 10.777-13.88 32.205-19.99 48.826-21.97">
</path>
<path fill="rgb(34,34,35)" d="M322.119 1439.28c1.297.33 2.152 1.17 3.166 2 5.593 11.93 8.215 32.01 8.661 45.24-.905-.4-1.787-1.08-2.619-1.62-6.699-12.03-8.18-31.97-9.208-45.62m27.744-80.86c1.516.7 1.496.95 2.232 2.48-.096 1.09-.303 2.15-.736 3.16-4.758 11.13-17.186 20.93-28.274 25.02l-1.789-1.33c.111-2.41 3.714-3.84 5.696-5.21 10.309-7.09 16.037-13.88 22.871-24.12">
</path>
<path fill="rgb(255,255,255)" d="M608.289 995.868c.807.213 1.509.858 2.232 1.382 2.33 8.89 4.608 35.59 5.968 46.44 10.156 81.18 9.839 163.9-6.159 244.32-6.365 32-20.1 62.98-26.474 94.82-.651 3.26.746 17.52 1.385 21.54 4.169 26.22-1.679 46.29-8.418 71.04-.876 3.21 2.991 7.48 3.095 12.32.959 44.92-2.145 89.63-5.046 134.42-1.52 23.3-1.574 47.04-3.347 70.31-2.29 30.06-5.698 60.17-6.201 90.37-.202 22.48 1.193 63.64 16.041 81.13 8.825 10.4 23.901 24.6 34.068 35.1 14.425 14.89 26.789 27.55 44.067 39.15 10.368 6.96 40.071 19.95 45.608 25.63 2.48 8.96-6.059 12.24-13.629 13.7-36.157 7.02-70.21 5.67-102.618-13.65-11.053-6.87-17.568-11.12-29.959-15.68-14.386-5.28-52.829-3.44-61.368-14.27-12.773-21.18 4.419-59.51 7.063-81.89 5.538-46.88-3.304-90.85-9.938-136.9-3.082-21.4-15.039-42.97-23.393-62.72-9.666-22.84-17.623-47.34-19.843-72.1a235.5 235.5 0 0 1 12.49-97.24c5.146-14.8 15.097-38.79 15.39-53.91-.389-37.36-15.65-74.13-22.8-111.15-6.668-34.52-4.351-34.61 4.43-67.93 3.38-12.93 6.517-25.91 9.41-38.95a839.4 839.4 0 0 0 17.549-117.7c37.664-2.59 48.393-31.98 65.403-58.12 9.762-15 38.131-33.08 54.994-39.462">
</path>
<path fill="rgb(34,34,35)" d="M569.667 1368.47c1.58.98 1.657 1.26 2.409 2.99-.253 1.45-.642 2.8-1.303 4.13-5.145 10.34-16.545 21.05-27.507 24.72l-1.742-1.8c1.022-3.37 10.32-7.53 13.266-10.38 5.883-5.69 10.376-12.87 14.877-19.66">
</path>
<path fill="rgb(255,255,255)" d="M498.253 87.873c.425.087 1.722.898 2.188 1.166 2.899 4.997 4.507 12.452 5.897 17.908 7.264 28.516 7.351 54.775 4.882 83.837-.887 10.433 2.808 22.092.591 34.175-3.784 21.193-10.174 42.084-15.784 62.887-2.966 7.444-3.161 29.218-11.965 31.99-15.718 4.948-42.978 5.623-59.26 4.583-12.231-.781-27.861-16.617-37.492-23.274-22.388-15.473-25.402-26.393-30.857-51.418l-3.619-13.467c-19.269 10.402-28.669-6.232-36.307-22.744-4.892-10.577-8.586-50.423 14.568-43.378 6.61 2.011 10.797 20.29 12.847 27.421 4.471 1.336 8.866 2.886 13.513 3.146 4.596-4.552 2.61-23.874 4.352-31.668 2.175-9.733 9.227-22.785 8.86-31.906-.409-10.146-3.357-21.997-4.531-32.655 8.108-17.448 21.528-14.125 37.656-11.892 19.436 2.69 40.088 9.495 59.79 8.425 10.328-.56 25.335-8.673 34.671-13.136">
</path>
<path fill="rgb(149,235,253)" d="M588.709 898.036c5.765 5.41 18.987 77.735 20.636 90.374-26.306 9.957-37.175 19.16-56.483 39.21a211.3 211.3 0 0 0 7.961-42.345c-17.593 38.355-18.926 92.365-72.224 101.365-20.698-47.08-70.664-78.6-120.334-86.32-30.516-3.677-73.152 1.81-89.002 31.89-5.038-33.654 1.181-69.785 9.399-102.357 22.5 8.692 35.99-4.988 59.969-5.488 13.263-.276 44.604 16.736 56.479 6.342 4.144-3.627-1.452-9.018-2.032-11.955 7.435-.005 21.664 4.491 32.583 5.286 53.114 3.868 104.607-2.764 153.048-26.002">
</path>
<path fill="rgb(255,255,255)" d="M401.836 23.39c21.731-4.429 81.823 8.649 102.464 16.304 5.881 5.888 14.62 22.2 19.156 30.18-2.51 6.854-4.186 9.833-7.859 16.213 6.486 20.414 4.671 34.604 2.395 55.341-1.75-11.326-8.995-52.952-12.824-61.958-8.288 1.75-32.197 14.044-37.769 14.434-25.211 1.764-53.262-6.79-80.15-8.42-4.717-.45-14.193.882-18.079 3.837-16.281 12.382-2.717 35.769-4.85 50.071-1.197 8.028-6.272 18.292-8.272 27.681-2.256 10.583-.037 18.682-1.588 26.266l-1.92.993c-10.054-4.683-7.42-43.046-37.19-28.064a223 223 0 0 1-5.346-28.263c-7.935-65.547 26.945-107.075 91.832-114.615m-164.638 597.196c9.844 24.914 14.767 35.551 28 58.615 20.027 35.789 53.958 67.327 57.866 110.015 2.516 22.766-6.439 46.315-16.397 66.319-2.881 5.789-20.8-12.389-22.959-14.482-43.993-46.565-55.125-99.201-100.827-143.996 21.884-21.008 39.371-50.364 54.317-76.471m406.009 464.154c.944 2.74 1.435 5.47 1.747 8.34 1.64 15.11-2.774 26.19-12.165 37.79-.951-3.05-1.846-5.69-1.445-8.94 1.447-3.74 5.068-5.77 8.211-8 2.371-9.61 2.499-19.4 3.652-29.19">
</path>
</svg>
